<?xml version="1.0" encoding="utf-8"?>
<svg fill="#000000" version="1.1" id="Capa_1" xmlns="http://www.w3.org/2000/svg" width="800px" height="800px" viewBox="24.667 18.317 35.865 35.621">
  <g transform="matrix(1, 0, 0, 1, -16.119261, 10.01348)">
    <g>
      <path d="M61.534,9.959c-1.1,2.1,0.355,8.729,0.44,15.453c0.057,4.894-1.234,9.903-1.241,12.919 c-0.012,5.328,11.561,6.496,14.015-1.312C80.002,20.301,66.133,10.009,61.534,9.959z" style="fill: rgb(14, 170, 102);"/>
      <path d="M56.429,9.959c-4.601,0.05-18.468,10.342-13.212,27.058c2.455,7.811,14.026,6.643,14.016,1.312 c-0.007-3.018-1.301-8.024-1.241-12.918C56.073,18.688,57.528,12.059,56.429,9.959z" style="fill: rgb(92, 214, 186);"/>
    </g>
  </g>
</svg>